<?xml version="1.0" encoding="UTF-8"?>
<svg width="52px" height="52px" viewBox="0 0 52 52" version="1.1" xmlns="http://www.w3.org/2000/svg" xmlns:xlink="http://www.w3.org/1999/xlink">
    <!-- Generator: Sketch 50.2 (55047) - http://www.bohemiancoding.com/sketch -->
    <title>i_huiyi</title>
    <desc>Created with Sketch.</desc>
    <defs></defs>
    <g id="Page-1" stroke="none" stroke-width="1" fill="none" fill-rule="evenodd">
        <g id="iPhone-8" transform="translate(-170.000000, -40.000000)">
            <g id="i_huiyi" transform="translate(170.000000, 40.000000)">
                <rect id="Rectangle" fill="#35B5FF" x="0" y="0" width="52" height="52" rx="12"></rect>
                <g id="Group-2" transform="translate(8.000000, 14.000000)" fill="#FFFFFF">
                    <path d="M21.4689929,13 C21.3796885,13.2196841 21.2712502,13.4645546 21.143678,13.7346117 C21.0117293,13.9898298 20.9034211,14.1742985 20.8187532,14.2880178 C20.5367456,14.6667883 19.9562045,15.221654 20.004662,15.8507191 C20.0979938,17.0623331 21.1974154,18.1278892 22,18.2910844 L22,18.3010673 C22.8915159,18.3941303 23.9097493,18.5087684 25.0547003,18.6449815 C27.3556857,18.9187163 29.1539312,20.7606459 29.3723789,23.0675368 L29.6411374,25.9057282 C29.6932023,26.4555533 29.2896879,26.9434816 28.7398627,26.9955465 C28.7085264,26.9985138 28.6770674,27 28.6455909,27 L7.36288062,27 C6.81059587,27 6.36288062,26.5522847 6.36288062,26 C6.36288062,25.9689371 6.36432798,25.937891 6.36721799,25.9069628 L6.63254095,23.0675368 C6.8515113,20.7241659 8.66419624,18.8448773 10.9981444,18.5415275 L10.9981464,18.5415424 C11.8521667,18.430543 12.6642385,18.3366071 13.4343617,18.2597349 C13.4839574,18.261657 13.5339524,18.2626821 13.5842706,18.2626821 C13.6843314,18.2626821 13.7951701,18.2457898 13.9127595,18.2136768 C13.9419026,18.2109767 13.9709828,18.2083022 14,18.2056532 L14,18.18747 C14.8210953,17.9190272 15.9093557,16.9644524 15.9951449,15.8507191 C16.0436008,15.221654 15.7122114,14.9591809 15.4302129,14.5804103 C15.3455477,14.4666911 15.1976998,14.2609595 14.986669,13.9632156 C14.7583292,13.4754434 14.5552462,13.0035624 14.37742,12.5475728 C14.1353086,11.7742923 14,10.9108484 14,10 C14,6.6862915 14.4295902,4 18,4 C21.5704098,4 22,6.6862915 22,10 C22,11.0928614 21.8052114,12.1174799 21.4648712,13 L21.4689929,13 Z" id="Combined-Shape"></path>
                    <path d="M1.00006854,19.8304614 C0.96859201,19.8304614 0.937133037,19.8289752 0.905796693,19.8260079 C0.355971547,19.773943 -0.0475428584,19.2860147 0.00452204257,18.7361895 L0.221964428,16.4399153 C0.410308726,14.4509279 1.96074516,12.8628273 3.94464095,12.6268148 C4.93181077,12.5093727 5.80972549,12.4105324 6.57838512,12.3216869 C7.27036868,12.1809809 8.2182834,11.2622649 8.29875351,10.2176186 C8.34053327,9.67524242 7.83999423,9.19684058 7.59684895,8.87026692 C7.52384883,8.77221887 7.43046612,8.61317107 7.31670082,8.39312352 C7.20670879,8.16028196 7.11321392,7.94915604 7.03976993,7.75974575 C6.74633065,6.99884224 6.57838512,6.11542237 6.57838512,5.17316384 C6.57838512,2.31610434 6.9487752,0 10.027161,0 C12.3157771,0 13.5035272,1.27457223 13.7592058,3.10542332 C12.2162269,4.43546295 11.9024032,6.8404434 11.9024032,9.57154214 C11.9024032,10.9494979 12.0044283,12.1580436 12.4714955,13.2707864 C12.5883963,13.5477793 12.737212,13.8565292 12.9122863,14.1970359 C13.0933665,14.5188327 13.2341573,14.7675894 13.358198,14.8948088 C14.1581548,15.7152654 13.1183319,16.1731434 12.8843779,16.1731434 L10.6372962,16.655627 C7.75699279,17.1160233 6.31392885,18.0136204 5.13077324,19.8304614 L1.00006854,19.8304614 Z" id="Combined-Shape" opacity="0.899999976"></path>
                    <path d="M23.0000685,19.8304614 C22.968592,19.8304614 22.937133,19.8289752 22.9057967,19.8260079 C22.3559715,19.773943 21.9524571,19.2860147 22.004522,18.7361895 L22.2219644,16.4399153 C22.4103087,14.4509279 23.9607452,12.8628273 25.9446409,12.6268148 C26.9318108,12.5093727 27.8097255,12.4105324 28.5783851,12.3216869 C29.2703687,12.1809809 30.2182834,11.2622649 30.2987535,10.2176186 C30.3405333,9.67524242 29.8399942,9.19684058 29.596849,8.87026692 C29.5238488,8.77221887 29.4304661,8.61317107 29.3167008,8.39312352 C29.2067088,8.16028196 29.1132139,7.94915604 29.0397699,7.75974575 C28.7463307,6.99884224 28.5783851,6.11542237 28.5783851,5.17316384 C28.5783851,2.31610434 28.9487752,0 32.027161,0 C34.3157771,0 35.1076483,1.28014133 35.3633269,3.11099243 C33.820348,4.44103205 33.568449,6.83411864 33.568449,9.56521739 C33.568449,10.9431731 33.8357679,12.2350833 34.3028351,13.3478261 C34.4197359,13.624819 34.5685516,13.9335689 34.7436259,14.2740756 C34.9247061,14.5958724 35.0654969,14.8446291 35.1895376,14.9718485 C35.9894944,15.7923052 35.1183319,16.1731434 34.8843779,16.1731434 L32.6372962,16.655627 C29.7569928,17.1160233 28.3139289,18.0136204 27.1307732,19.8304614 L23.0000685,19.8304614 Z" id="Combined-Shape-Copy" opacity="0.899999976" transform="translate(28.760320, 9.915231) scale(-1, 1) translate(-28.760320, -9.915231) "></path>
                </g>
            </g>
        </g>
    </g>
</svg>