<?xml version="1.0" encoding="UTF-8"?>
<svg width="70px" height="70px" viewBox="0 0 70 70" version="1.1" xmlns="http://www.w3.org/2000/svg" xmlns:xlink="http://www.w3.org/1999/xlink">
    <!-- Generator: Sketch 50.2 (55047) - http://www.bohemiancoding.com/sketch -->
    <title>i_qingjia</title>
    <desc>Created with Sketch.</desc>
    <defs></defs>
    <g id="首页" stroke="none" stroke-width="1" fill="none" fill-rule="evenodd">
        <g transform="translate(-760.000000, -548.000000)" id="我的应用">
            <g transform="translate(169.000000, 122.000000)">
                <g id="i_qingjia" transform="translate(591.000000, 426.000000)">
                    <rect id="Rectangle-3" fill="#FCC254" x="0" y="0" width="70" height="70" rx="16"></rect>
                    <path d="M50,45.8869987 L50,42 C50,41.4477153 49.5522847,41 49,41 C48.4477153,41 48,41.4477153 48,42 L48,46 C48,46.1222014 48.0219194,46.2392833 48.0620409,46.3475284 C48.0518371,46.6127585 48.1505767,46.8810084 48.3568669,47.0795458 L52.1903451,50.7689537 C52.5780149,51.1420541 53.1914046,51.1415341 53.5784413,50.7677771 L53.6043001,50.7428055 C53.6127613,50.7346347 53.6210722,50.7263097 53.6292286,50.7178347 C53.9984366,50.3342093 53.986749,49.7239172 53.6031235,49.3547092 L50,45.8869987 Z M49,56 C43.4771525,56 39,51.5228475 39,46 C39,40.4771525 43.4771525,36 49,36 C54.5228475,36 59,40.4771525 59,46 C59,51.5228475 54.5228475,56 49,56 Z" id="Combined-Shape" fill="#FFFFFF"></path>
                    <path d="M36.9963267,41 L25.5,41 C24.6715729,41 24,41.6715729 24,42.5 C24,43.3284271 24.6715729,44 25.5,44 L36.1528964,44 C36.0522295,44.6519398 36,45.3198705 36,46 C36,48.1642533 36.5288696,50.2049825 37.4644213,52 L21,52 C18.790861,52 17,50.209139 17,48 L17,22 C17,19.790861 18.790861,18 21,18 L45,18 C47.209139,18 49,19.790861 49,22 L49,33 C46.3626629,33 43.9087543,33.7853509 41.8593798,35.134947 C41.9495991,34.9421248 42,34.7269483 42,34.5 C42,33.6715729 41.3284271,33 40.5,33 L25.5,33 C24.6715729,33 24,33.6715729 24,34.5 C24,35.3284271 24.6715729,36 25.5,36 L40.5,36 C40.571445,36 40.6417234,35.9950051 40.710505,35.9853454 C39.0983576,37.3212769 37.8140856,39.039041 36.9963267,41 Z M25.5,25 C24.6715729,25 24,25.6715729 24,26.5 C24,27.3284271 24.6715729,28 25.5,28 L40.5,28 C41.3284271,28 42,27.3284271 42,26.5 C42,25.6715729 41.3284271,25 40.5,25 L25.5,25 Z" id="Combined-Shape" fill="#FFFFFF"></path>
                </g>
            </g>
        </g>
    </g>
</svg>