<?xml version="1.0" encoding="UTF-8"?>
<svg width="70px" height="70px" viewBox="0 0 70 70" version="1.1" xmlns="http://www.w3.org/2000/svg" xmlns:xlink="http://www.w3.org/1999/xlink">
    <!-- Generator: Sketch 50.2 (55047) - http://www.bohemiancoding.com/sketch -->
    <title>i_xuesgl</title>
    <desc>Created with Sketch.</desc>
    <defs></defs>
    <g id="首页" stroke="none" stroke-width="1" fill="none" fill-rule="evenodd">
        <g id="更多应用-2" transform="translate(-83.000000, -436.000000)">
            <g id="i_yuyue" transform="translate(43.000000, 436.000000)">
                <g id="i_xuesgl" transform="translate(40.000000, 0.000000)">
                    <rect id="Rectangle-3" fill="#35B5FF" x="0" y="0" width="70" height="70" rx="16"></rect>
                    <path d="M17,17 L53,17 C56.3137085,17 59,19.6862915 59,23 L59,47 C59,50.3137085 56.3137085,53 53,53 L17,53 C13.6862915,53 11,50.3137085 11,47 L11,23 C11,19.6862915 13.6862915,17 17,17 Z M39,28 C38.4477153,28 38,28.4477153 38,29 C38,29.5522847 38.4477153,30 39,30 L47,30 C47.5522847,30 48,29.5522847 48,29 C48,28.4477153 47.5522847,28 47,28 L39,28 Z M39,34 C38.4477153,34 38,34.4477153 38,35 C38,35.5522847 38.4477153,36 39,36 L52,36 C52.5522847,36 53,35.5522847 53,35 C53,34.4477153 52.5522847,34 52,34 L39,34 Z M39,40 C38.4477153,40 38,40.4477153 38,41 C38,41.5522847 38.4477153,42 39,42 L52,42 C52.5522847,42 53,41.5522847 53,41 C53,40.4477153 52.5522847,40 52,40 L39,40 Z M29.9555466,37.9140261 C29.4102503,37.6713681 27.8995363,37.2600202 27.7181387,36.5620257 C27.4330262,35.4591476 28.5157167,34.6182601 28.9969081,33.7500348 C29.5036784,32.8342585 29.9264402,31.5949315 30.0089313,30.5589369 C30.3052173,26.840956 28.0605772,24.6656196 24.8428931,25.0420647 C22.5032877,25.3154227 21.1057084,27.0871764 20.9547375,29.3687219 C20.8013427,31.6931555 21.6503544,33.4102535 22.5525341,34.6693734 C22.9470566,35.220252 23.3612856,35.5744827 23.2982644,36.2375945 C23.2236559,37.0218051 22.3980554,37.2409278 21.8072569,37.4818046 C21.1066148,37.7675707 20.3530019,38.201133 19.9965522,38.4015835 C18.7698669,39.0902519 17.4230513,39.9184712 17.1204198,41.0520093 C16.4499482,43.5642251 18.7138218,44.3251206 20.582089,44.6762292 C22.1862311,44.9766648 23.9938814,45 25.4818344,45 C28.1717411,45 33.0100024,44.8906688 33.7900811,42.8368915 C34.0119557,42.254012 33.9165569,41.3251272 33.7900811,40.9435587 C33.3005933,39.4622542 31.3474308,38.5351305 29.9555466,37.9140261 Z" id="Combined-Shape" fill="#FFFFFF"></path>
                </g>
            </g>
        </g>
    </g>
</svg>