<?xml version="1.0" encoding="UTF-8"?>
<svg width="52px" height="52px" viewBox="0 0 52 52" version="1.1" xmlns="http://www.w3.org/2000/svg" xmlns:xlink="http://www.w3.org/1999/xlink">
    <!-- Generator: Sketch 50.2 (55047) - http://www.bohemiancoding.com/sketch -->
    <title>i_yuyue</title>
    <desc>Created with Sketch.</desc>
    <defs></defs>
    <g id="Page-1" stroke="none" stroke-width="1" fill="none" fill-rule="evenodd">
        <g id="iPhone-8" transform="translate(-79.000000, -88.000000)">
            <g id="i_yuyue" transform="translate(79.000000, 88.000000)">
                <rect id="Rectangle" fill="#FF9262" x="0" y="0" width="52" height="52" rx="12"></rect>
                <g id="Group" transform="translate(10.000000, 12.000000)" fill="#FFFFFF">
                    <path d="M28,8 L28,10.0106742 C27.8342183,10.0035822 27.6675275,10 27.5,10 C21.1487254,10 16,15.1487254 16,21.5 C16,23.9121909 16.7426793,26.1509198 18.0118512,28 L4,28 C1.790861,28 2.705415e-16,26.209139 0,24 L0,8 L28,8 Z M28,6 L0,6 L0,4 C-2.705415e-16,1.790861 1.790861,4.05812251e-16 4,0 L24,0 C26.209139,-4.05812251e-16 28,1.790861 28,4 L28,6 Z M4,13 C3.44771525,13 3,13.4477153 3,14 C3,14.5522847 3.44771525,15 4,15 L15,15 C15.5522847,15 16,14.5522847 16,14 C16,13.4477153 15.5522847,13 15,13 L4,13 Z M4,18 C3.44771525,18 3,18.4477153 3,19 C3,19.5522847 3.44771525,20 4,20 L12,20 C12.5522847,20 13,19.5522847 13,19 C13,18.4477153 12.5522847,18 12,18 L4,18 Z" id="Combined-Shape"></path>
                    <path d="M28,21.5857864 L28,17 C28,16.4477153 27.5522847,16 27,16 C26.4477153,16 26,16.4477153 26,17 L26,21.4007204 C25.7934502,21.7800554 25.8506411,22.2648547 26.1715729,22.5857864 L30.4142136,26.8284271 C30.8047379,27.2189514 31.4379028,27.2189514 31.8284271,26.8284271 C32.2189514,26.4379028 32.2189514,25.8047379 31.8284271,25.4142136 L28,21.5857864 Z M27.5,31 C22.2532949,31 18,26.7467051 18,21.5 C18,16.2532949 22.2532949,12 27.5,12 C32.7467051,12 37,16.2532949 37,21.5 C37,26.7467051 32.7467051,31 27.5,31 Z" id="Combined-Shape"></path>
                </g>
            </g>
        </g>
    </g>
</svg>