<?xml version="1.0" encoding="UTF-8"?>
<svg width="70px" height="70px" viewBox="0 0 70 70" version="1.1" xmlns="http://www.w3.org/2000/svg" xmlns:xlink="http://www.w3.org/1999/xlink">
    <!-- Generator: Sketch 50.2 (55047) - http://www.bohemiancoding.com/sketch -->
    <title>i_fangxiao</title>
    <desc>Created with Sketch.</desc>
    <defs></defs>
    <g id="首页" stroke="none" stroke-width="1" fill="none" fill-rule="evenodd">
        <g transform="translate(-673.000000, -548.000000)" id="我的应用">
            <g transform="translate(169.000000, 122.000000)">
                <g id="i_fangxiao" transform="translate(504.000000, 426.000000)">
                    <rect id="Rectangle-3" fill="#48B4FF" x="0" y="0" width="70" height="70" rx="16"></rect>
                    <path d="M40.1340914,47 L47.20015,47 C47.7524348,47 48.20015,46.5522847 48.20015,46 C48.20015,45.4477153 47.7524348,45 47.20015,45 L38.1426629,45 C37.5903781,45 37.1426629,45.4477153 37.1426629,46 C37.1426629,46.2658117 37.2463737,46.5074005 37.4155383,46.6865093 C37.4459957,46.8228956 37.5064885,46.9548247 37.5982478,47.0722713 C37.6039688,47.0795938 37.6097946,47.0868339 37.6157232,47.0939893 L40.3337405,50.3744087 C40.6789777,50.7910812 41.2930247,50.857551 41.7194286,50.5244078 L41.7417171,50.5069942 C42.1646138,50.176591 42.2395947,49.5659208 41.9091915,49.143024 C41.9034706,49.1357015 41.8976448,49.1284614 41.8917162,49.121306 L40.1340914,47 Z M47.2081559,43.0483035 C47.5508615,43.2441586 47.9913922,43.2249428 48.3202869,42.9679821 L48.3425753,42.9505685 C48.7654721,42.6201653 48.840453,42.0094951 48.5100498,41.5865983 C48.5043288,41.5792758 48.4985031,41.5720357 48.4925744,41.5648803 L45.7745572,38.2844609 C45.42932,37.8677884 44.8152729,37.8013186 44.388869,38.1344618 L44.3665806,38.1518754 C43.9436838,38.4822786 43.868703,39.0929488 44.1991061,39.5158456 C44.2048271,39.5231681 44.2106528,39.5304082 44.2165815,39.5375636 L45.4862923,41.0699983 L38.1641841,41.0699983 C37.6118994,41.0699983 37.1641841,41.5177135 37.1641841,42.0699983 C37.1641841,42.622283 37.6118994,43.0699983 38.1641841,43.0699983 L47,43.0699983 C47.0713789,43.0699983 47.1410111,43.0625198 47.2081559,43.0483035 Z M37.7360633,32.7796303 C33.2136788,34.4991764 30,38.8742908 30,44 C30,46.1852706 30.5841239,48.2341118 31.6047527,49.9989044 C24.6079021,49.9597174 19,48.8556565 19,44.5 C19,41.9043628 21.4416442,40.3246148 25.2959067,39.5601978 C25.4597095,39.5405894 25.6215212,39.5102526 25.7793426,39.4698665 C25.8524325,39.45702 25.9259871,39.4444472 26,39.4321469 L26,39.4060153 C27.0618696,39.0622805 27.8879484,38.2536332 27.8178215,37.2044223 C27.730651,35.9002132 26.8759792,34.7281265 26,34.0159537 L26,33.9588201 C24.7588255,32.2638443 24,29.9941699 24,27.5 C24,22.2532949 25.3160748,18 31.5,18 C37.6839252,18 39,22.2532949 39,27.5 C39,29.4537315 38.5343929,31.2697151 37.7360633,32.7796303 Z M42.5,55 C36.7010101,55 32,50.2989899 32,44.5 C32,38.7010101 36.7010101,34 42.5,34 C48.2989899,34 53,38.7010101 53,44.5 C53,50.2989899 48.2989899,55 42.5,55 Z" id="图标" fill="#FFFFFF"></path>
                </g>
            </g>
        </g>
    </g>
</svg>